<?xml version="1.0" encoding="UTF-8" standalone="no"?>
<svg
   width="197"
   height="197"
   preserveAspectRatio="xMidYMid"
   version="1.0"
   viewBox="0 0 147.75 147.75"
   id="svg44"
   xmlns="http://www.w3.org/2000/svg"
   xmlns:svg="http://www.w3.org/2000/svg">
  <defs
     id="defs44" />
  <g
     transform="matrix(0.10270201,0,0,-0.10274924,-0.44562459,410.14207)"
     id="g44">
    <g
       fill="#ff005a"
       stroke-width="0.36796"
       id="g43">
      <path
         d="m 693.79,3959.8 c -23.417,-5.8282 -41.631,-17.12 -59.845,-36.426 -24.904,-27.319 -28.25,-42.253 -28.25,-122.03 v -66.294 l 22.674,-30.597 c 21.559,-29.14 22.302,-31.326 20.444,-46.625 -1.1151,-8.7422 -4.0888,-18.213 -6.319,-20.763 -4.4605,-5.4638 -92.555,-56.095 -135.3,-78.315 -25.648,-13.113 -26.02,-13.477 -28.621,-30.962 -1.4868,-9.8349 -9.6643,-40.796 -18.214,-68.844 -20.816,-69.208 -20.816,-67.387 -11.151,-67.387 6.6906,0 7.8058,2.1856 7.8058,14.57 0,10.563 1.4869,14.57 5.5757,14.57 4.4604,0 5.5755,-6.1922 5.5755,-32.783 0,-30.233 0.37174,-32.783 7.4341,-32.783 4.0888,0 7.4342,1.4572 7.4342,3.2783 0,1.8213 13.381,9.4707 29.736,17.12 21.187,9.4705 29.736,15.299 29.736,20.034 0,6.9207 12.638,16.027 18.214,12.749 4.8321,-3.2784 72.483,85.964 71.739,94.706 -0.37165,4.371 2.2303,10.199 5.2039,12.749 5.2038,4.0068 7.0624,3.6425 12.638,-2.9141 7.8059,-9.4705 57.614,-22.948 91.068,-24.769 29.365,-1.8212 121.55,5.0996 126.01,9.4707 2.2303,1.8213 6.6907,3.2783 10.036,3.2783 3.3454,0 14.868,6.9208 25.276,14.934 25.648,20.034 28.25,16.027 2.9737,-4.371 -12.638,-10.563 -19.7,-18.577 -19.329,-24.041 0,-4.371 12.638,-21.855 29.365,-41.161 22.302,-25.134 30.852,-32.419 36.056,-30.962 11.151,3.6424 21.931,-4.3712 21.931,-16.392 0,-17.848 -14.497,-26.591 -28.993,-17.848 -5.2039,2.914 -15.983,-1.0928 -55.756,-21.491 -32.71,-16.391 -51.295,-28.412 -54.269,-33.876 -5.5756,-10.928 -17.098,-13.477 -23.046,-5.0995 -8.1775,10.563 0,21.127 14.496,18.941 9.2926,-1.0928 22.302,4.0068 60.96,23.677 41.631,21.491 49.437,26.955 50.18,34.24 0,4.7354 0.37174,10.199 0.74349,12.385 0.37164,4.7355 -48.694,60.102 -63.19,71.03 -11.523,8.7421 -12.266,8.7421 -59.473,5.0996 -26.391,-2.1856 -52.782,-5.4639 -58.358,-7.6494 -7.4341,-2.9141 -12.638,-2.9141 -18.585,0 -4.4606,2.1855 -24.533,8.0136 -44.605,13.113 -31.223,7.6493 -38.286,8.0136 -47.578,4.371 -14.125,-5.8281 -78.802,-89.971 -75.456,-98.349 1.1151,-3.2783 0.37174,-8.3778 -2.2303,-11.292 -7.0624,-8.3779 4.8322,-38.611 18.585,-46.26 11.895,-6.5567 13.753,-13.478 7.0624,-24.405 -3.717,-5.0996 -2.2302,-13.477 5.9473,-39.704 9.2926,-30.233 11.151,-32.783 20.816,-34.24 8.9209,-1.4569 14.496,2.1856 37.542,25.134 20.444,20.034 26.763,28.776 26.019,35.333 -1.4868,9.8348 7.0625,17.848 15.612,14.57 5.9473,-2.1856 6.6907,-4.0068 7.4342,-16.756 0.37165,-3.6425 16.727,-20.398 37.171,-37.518 27.878,-23.676 37.542,-30.233 41.259,-27.319 2.6019,2.1855 9.6644,3.6426 15.24,2.9141 10.036,-1.0929 10.78,0 14.868,18.941 5.5756,26.226 6.319,18.213 1.1151,-16.392 -2.6019,-15.299 -6.6907,-29.869 -9.6644,-32.783 -4.0887,-4.3711 -2.6019,-9.1064 10.779,-33.147 8.921,-15.299 20.816,-32.419 26.763,-38.247 9.6644,-9.4707 10.408,-11.292 6.319,-20.763 -2.6019,-5.8281 -4.0887,-21.127 -3.3453,-33.876 1.1151,-22.584 1.4868,-23.312 11.523,-24.405 l 10.036,-1.0927 v 35.697 c 0,79.772 4.8322,150.44 10.036,150.44 3.7171,0 4.8322,-7.6493 4.8322,-32.783 0,-32.054 0.37174,-32.783 8.921,-32.783 7.8058,0 8.9209,1.8213 10.78,24.769 1.4867,13.477 2.6019,47.717 2.6019,76.494 0,42.982 0.74339,51.724 5.5756,51.724 4.4604,0 5.5756,-9.1063 6.319,-53.545 0.7434,-38.611 2.2303,-53.546 5.9472,-55.002 3.3454,-1.0928 4.4606,8.3779 4.4606,38.975 v 40.432 h 21.931 l 1.1151,28.048 c 0.74339,18.213 2.602,28.412 5.9473,29.505 3.3453,1.093 4.4604,-5.0996 4.4604,-22.584 0,-18.941 1.1151,-24.041 5.5756,-24.041 4.4605,0 5.5756,5.8281 5.5756,30.962 v 30.597 l 12.266,3.2783 c 8.5492,2.1855 11.895,5.0996 11.523,10.199 -0.37174,3.6425 -8.5492,33.147 -18.214,65.202 -9.6644,32.054 -18.585,67.387 -20.072,78.315 -1.8584,18.213 -3.3453,20.034 -13.381,23.312 -14.868,4.7353 -134.19,70.301 -145.34,80.136 -5.9473,5.0996 -9.6644,13.113 -11.151,24.041 -2.2302,16.027 -1.4868,17.848 20.816,46.26 l 22.674,29.869 -1.1151,73.944 c -1.115,68.48 -1.8585,75.036 -9.6643,90.699 -23.046,45.896 -79.917,73.215 -128.24,61.559 z m -3.717,-107.82 c 7.8058,-7.6493 8.921,-11.656 7.4341,-22.22 -2.9737,-17.12 -8.5492,-22.948 -23.417,-22.948 -23.046,0 -32.338,28.412 -14.496,45.532 11.523,11.656 18.585,11.292 30.48,-0.3643 z m 89.209,1.457 c 5.5756,-5.0995 8.5492,-12.02 8.5492,-19.67 0,-28.412 -32.338,-38.975 -43.118,-13.842 -12.266,29.14 12.638,53.545 34.569,33.511 z"
         id="path1" />
      <path
         d="m 519.83,3373.4 c -24.904,-12.385 -25.648,-14.934 -25.648,-73.215 v -39.704 h 33.082 l 1.115,37.154 c 1.1151,32.054 1.8585,37.518 7.4342,38.611 5.9472,1.0929 6.6906,-6.1923 7.434,-101.99 l 1.1152,-103.08 10.036,-1.0928 10.036,-1.0926 1.115,59.009 c 0.7435,42.982 2.2303,59.374 5.5757,60.466 3.7171,1.457 4.8321,-29.505 5.5755,-141.7 1.1152,-124.21 1.8586,-143.15 6.6908,-143.15 3.717,0 5.9472,4.3711 6.6906,11.656 1.1151,10.928 1.8586,11.656 18.585,12.749 l 17.47,1.0927 1.1151,61.195 0.74339,60.83 -8.921,3.6426 c -10.779,3.6425 -16.727,20.034 -10.036,26.591 2.2303,2.1854 4.0887,16.027 4.0887,31.69 0,24.769 -0.74329,27.683 -8.1775,30.962 -10.408,4.371 -13.01,17.484 -5.2038,29.14 5.2038,7.6493 4.8322,10.928 -4.4604,41.889 -8.1775,27.683 -11.523,34.24 -18.957,36.79 -7.8059,3.2784 -8.5492,5.0996 -6.6906,19.306 2.6019,18.577 -6.3191,49.539 -14.125,49.539 -2.6019,0 -7.0624,0.7286 -10.036,1.8213 -2.602,0.7284 -14.125,-3.2783 -25.648,-9.1064 z"
         id="path2" />
      <path
         d="m 443.63,3371.9 c -1.115,-2.5497 -1.4868,-12.02 -0.74339,-20.762 0.74339,-11.656 2.9737,-16.391 7.8059,-17.12 5.5756,-1.0928 6.319,1.8213 6.319,20.762 0,17.484 -1.1151,22.22 -5.5756,22.22 -3.3453,0 -6.6907,-2.1855 -7.8059,-5.0996 z"
         id="path3" />
      <path
         d="m 469.65,3339.1 c -3.3454,-8.3778 0,-18.577 5.9472,-18.577 3.7172,0 5.9473,4.371 6.6908,12.02 0.7434,8.7422 -0.37174,11.656 -4.8323,11.656 -2.9736,0 -6.6906,-2.1854 -7.8058,-5.0995 z"
         id="path4" />
      <path
         d="m 445.86,3307.8 c 0,-4.0067 2.602,-7.2851 5.5756,-7.2851 2.9737,0 5.5756,3.2784 5.5756,7.2851 0,4.0068 -2.6019,7.2852 -5.5756,7.2852 -2.9736,0 -5.5756,-3.2784 -5.5756,-7.2852 z"
         id="path5" />
      <path
         d="m 469.28,3305.6 c -2.9737,-7.6492 4.8322,-15.298 10.408,-9.8347 4.8322,4.7352 1.8585,15.663 -4.0888,15.663 -2.2302,0 -4.8321,-2.5498 -6.319,-5.8282 z"
         id="path6" />
      <path
         d="m 662.94,3264.8 c -22.302,-23.677 -26.019,-29.505 -23.789,-37.154 3.3454,-13.477 0.37174,-21.491 -9.6643,-24.041 -8.1776,-2.1855 -8.5492,-3.6425 -6.6907,-17.484 4.0887,-32.419 5.5756,-37.154 14.125,-42.982 7.8058,-5.4638 11.523,-5.828 31.595,-1.8212 17.098,3.6425 21.559,5.8281 18.585,8.7421 -5.5756,5.4639 -1.4868,15.663 5.9473,15.663 2.9737,0 23.417,10.928 44.605,24.041 30.48,18.577 39.029,25.498 38.657,31.69 0,8.7422 -69.509,69.573 -80.66,70.666 -3.717,0.3642 -17.47,-11.292 -32.71,-27.319 z"
         id="path7" />
      <path
         d="m 955.84,3287.4 c -14.496,-9.8349 -8.5492,-30.597 8.5492,-30.597 8.5492,0 20.444,10.199 20.444,17.484 0,4.7354 -13.381,18.941 -17.842,18.941 -1.4868,0 -6.6906,-2.5497 -11.151,-5.828 z"
         id="path8" />
      <path
         d="m 446.6,3276.5 c 1.4869,-7.6493 8.1775,-8.3778 9.6644,-0.3642 0.74339,3.6425 -1.1151,6.1923 -4.8322,6.1923 -3.717,0 -5.5756,-2.1855 -4.8322,-5.8281 z"
         id="path9" />
      <path
         d="m 470.39,3279.4 c -2.9737,-4.7354 4.0888,-12.749 8.5492,-10.199 5.9473,3.6425 5.2038,13.113 -1.1151,13.113 -2.9737,0 -6.319,-1.4571 -7.4341,-2.914 z"
         id="path10" />
      <path
         d="m 457.01,3253.9 c -10.408,-8.3778 -7.4341,-21.491 5.9473,-24.769 18.585,-4.7353 26.763,16.027 10.408,26.591 -7.0625,4.3711 -8.921,4.0068 -16.355,-1.8213 z"
         id="path11" />
      <path
         d="m 496.78,3243.3 c -1.4869,-1.0929 -2.6019,-12.02 -2.6019,-23.677 v -21.127 h 33.454 v 47.353 h -14.125 c -7.8059,0 -15.612,-1.0929 -16.727,-2.5498 z"
         id="path12" />
      <path
         d="m 943.95,3209.4 c 0,-23.312 1.115,-29.14 5.5756,-29.14 4.4604,0 5.5756,5.8281 5.5756,29.14 0,23.312 -1.1151,29.14 -5.5756,29.14 -4.4606,0 -5.5756,-5.8281 -5.5756,-29.14 z"
         id="path13" />
      <path
         d="m 468.16,3206.2 c 0,-9.1064 7.0625,-13.842 11.523,-7.2851 4.4605,6.9208 2.2303,12.02 -5.2038,13.477 -4.0888,0.7285 -6.3191,-1.0928 -6.3191,-6.1923 z"
         id="path14" />
      <path
         d="m 754.75,3194.9 c -12.266,-8.0136 -29.365,-17.848 -37.542,-21.855 -17.099,-8.3779 -17.842,-12.385 -6.319,-26.226 7.8059,-9.1064 11.523,-10.199 63.562,-15.663 44.976,-4.7353 55.756,-5.0996 58.358,-1.0928 4.4606,7.2852 -30.48,67.752 -43.118,74.308 -5.5756,2.9141 -10.408,5.0995 -11.151,5.0995 -0.37175,0 -11.151,-6.5566 -23.789,-14.57 z"
         id="path15" />
      <path
         d="m 471.88,3143.9 c 0,-19.306 1.4869,-32.783 3.7171,-32.783 2.2303,0 3.7172,13.477 3.7172,32.783 0,19.306 -1.4869,32.783 -3.7172,32.783 -2.2302,0 -3.7171,-13.477 -3.7171,-32.783 z"
         id="path16" />
      <path
         d="m 943.95,3147.5 c 0,-10.563 1.4868,-14.57 4.8322,-13.477 5.5756,1.8213 5.5756,25.134 -0.37175,27.319 -2.9737,0.7284 -4.4604,-3.6427 -4.4604,-13.842 z"
         id="path17" />
      <path
         d="m 882.24,3153 c -2.9737,-7.2852 1.4868,-12.749 9.6643,-12.749 9.2926,0 13.01,6.1923 7.4341,12.749 -5.9472,6.9208 -14.496,6.9208 -17.098,0 z"
         id="path18" />
      <path
         d="m 657.73,3134.4 c -7.0624,-2.914 -14.125,-7.2851 -15.612,-9.8349 -1.4868,-2.5497 -2.9737,-16.756 -2.9737,-31.69 0,-23.312 1.1151,-28.048 7.4341,-32.054 4.0888,-2.5497 7.4342,-6.9208 7.4342,-9.4705 0,-2.9141 -3.3454,-6.5566 -7.4342,-7.6494 -6.6906,-2.1856 -7.4341,-5.4638 -7.4341,-29.505 v -26.955 h 33.454 v -163.91 h 40.888 v 123.85 h 33.454 v -94.706 h 9.2926 c 9.2927,0 9.2927,0.3643 9.2927,30.962 v 30.962 h 26.019 v 109.28 l -29.736,-14.57 c -19.7,-9.8349 -28.993,-16.027 -27.506,-19.306 2.602,-6.5567 28.25,-20.763 37.914,-20.763 9.2926,0 16.727,-8.3778 14.868,-17.12 -0.74339,-4.7353 -4.4604,-6.5566 -12.266,-6.5566 -9.2926,0 -11.151,1.457 -11.151,9.1064 0,12.02 -17.842,23.312 -36.799,23.676 -16.727,0 -25.276,8.7422 -18.585,18.941 2.9736,4.7353 2.2302,22.22 -2.2303,65.202 -8.1776,76.858 -14.496,86.328 -48.322,72.122 z"
         id="path19" />
      <path
         d="m 707.54,3127.5 c -2.602,-5.8281 3.3453,-83.414 8.1775,-110 3.3453,-18.213 13.01,-18.577 46.835,-2.5499 l 29.736,14.206 -1.4868,23.312 c -0.74348,18.941 0,24.041 5.2038,27.319 9.6644,5.828 17.47,-2.5498 11.151,-12.385 -2.6019,-4.3711 -4.4604,-20.398 -4.4604,-40.068 v -32.783 h 13.01 c 12.638,0 13.01,0.3643 13.01,14.206 0,8.0136 -1.4869,15.663 -3.717,16.756 -6.3191,4.0068 -4.0888,15.663 3.717,18.213 6.6906,2.1855 7.4341,5.4638 7.4341,35.697 0,18.577 -1.4869,35.333 -2.9737,37.518 -1.4869,2.1854 -21.931,5.828 -45.348,8.3777 -23.417,2.1856 -50.552,5.0996 -60.216,6.5566 -14.868,1.8213 -18.214,1.0928 -20.072,-4.371 z"
         id="path20" />
      <path
         d="m 546.22,3089.2 c 0,-20.763 0.37174,-21.855 9.2926,-21.855 8.921,0 9.2926,1.0927 9.2926,21.855 0,20.762 -0.37165,21.855 -9.2926,21.855 -8.9209,0 -9.2926,-1.0927 -9.2926,-21.855 z"
         id="path21" />
      <path
         d="m 848.79,3035.7 c -4.4605,-6.1922 -7.0624,-16.027 -6.6906,-24.769 0.37164,-8.0136 0.74329,-24.041 1.115,-35.333 0.37165,-26.955 7.8059,-27.683 7.8059,-1.0928 0,18.213 0.74339,20.398 9.6643,23.677 8.5492,3.2782 9.2927,5.0995 8.1775,24.405 -1.4868,24.769 -8.9209,29.505 -20.072,13.113 z"
         id="path22" />
      <path
         d="m 605.69,2958.1 v -18.213 h 48.322 v 36.426 H 605.69 Z"
         id="path23" />
      <path
         d="m 802.7,2959.2 c 0,-27.683 2.9737,-34.604 14.497,-33.147 9.2926,1.0928 9.6643,2.1855 10.78,25.862 l 1.115,24.405 h -26.391 z"
         id="path24" />
      <path
         d="m 724.64,2933.7 c 0,-1.8212 -0.74339,-37.882 -1.4869,-80.136 -1.4868,-61.559 -0.7434,-77.586 2.9737,-77.586 6.3191,0 9.6644,38.611 9.6644,108.18 0,43.711 -0.74339,52.088 -5.5756,52.088 -2.9736,0 -5.5756,-1.0927 -5.5756,-2.5498 z"
         id="path25" />
      <path
         d="m 622.05,2916.6 c -2.6019,-10.199 0.7435,-17.848 6.3191,-14.934 4.4604,2.914 4.4604,23.676 -0.37175,23.676 -1.8585,0 -4.4604,-4.0067 -5.9473,-8.7421 z"
         id="path26" />
      <path
         d="m 841.73,2921.7 c -2.6019,-4.3712 0.7434,-10.928 5.9472,-10.928 4.4605,0 4.4605,9.8349 0,12.749 -1.8585,1.0928 -4.4604,0.3643 -5.9472,-1.8212 z"
         id="path27" />
      <path
         d="m 809.02,2908.2 c -4.0887,-3.6425 -2.9736,-41.161 1.1151,-41.161 2.2303,0 3.7171,9.835 3.7171,21.855 0,22.22 -0.37165,23.677 -4.8322,19.306 z"
         id="path28" />
      <path
         d="m 783,2901.3 c -1.4869,-1.4571 -2.602,-12.385 -2.602,-24.041 0,-28.412 8.9209,-27.683 10.408,0.7285 1.1152,18.213 -2.2303,28.412 -7.8058,23.312 z"
         id="path29" />
      <path
         d="m 621.31,2880.9 c 1.8585,-11.656 10.408,-12.749 10.408,-1.457 0,6.1923 -1.8585,9.4706 -5.9472,9.4706 -3.7172,0 -5.2039,-2.5498 -4.4606,-8.0136 z"
         id="path30" />
      <path
         d="m 623.16,2853.9 c -5.5756,-5.4638 -2.6019,-16.391 4.0888,-15.299 3.3453,0.7285 6.319,4.3711 6.319,8.0137 0,7.285 -5.9473,11.292 -10.408,7.285 z"
         id="path31" />
      <path
         d="m 783,2839 c -4.4606,-4.0068 -2.9738,-8.3778 2.9736,-8.3778 2.9737,0 5.5756,2.5497 5.5756,5.4638 0,5.828 -4.4604,7.2851 -8.5492,2.914 z"
         id="path32" />
      <path
         d="m 746.94,2811 c 0,-25.134 0.74348,-27.683 7.4342,-27.683 8.9209,0 11.895,10.199 10.408,34.968 -1.115,15.299 -2.2302,17.848 -9.2926,18.941 -8.1775,1.0928 -8.5492,0 -8.5492,-26.226 z"
         id="path33" />
      <path
         d="m 620.56,2801.5 c 0,-10.563 1.4868,-14.57 5.5756,-14.57 4.0887,0 5.5756,4.0069 5.5756,14.57 0,10.564 -1.4869,14.57 -5.5756,14.57 -4.0888,0 -5.5756,-4.0068 -5.5756,-14.57 z"
         id="path34" />
      <path
         d="m 780.4,2810.6 c 0,-2.9141 2.602,-5.4638 5.5756,-5.4638 2.9737,0 5.5756,2.5497 5.5756,5.4638 0,2.914 -2.6019,5.4638 -5.5756,5.4638 -2.9736,0 -5.5756,-2.5498 -5.5756,-5.4638 z"
         id="path35" />
      <path
         d="m 694.9,2777.4 c 0,-30.233 0.37165,-30.962 8.5492,-29.869 6.6907,0.7285 8.5492,3.6426 9.2926,15.663 0.74339,8.0136 0.37165,21.491 -1.1151,30.233 -1.8585,12.02 -3.7171,15.299 -9.6644,15.299 -6.319,0 -7.0624,-2.914 -7.0624,-31.326 z"
         id="path36" />
      <path
         d="m 780.4,2783.3 c 0,-4.0068 2.602,-7.2851 5.5756,-7.2851 2.9737,0 5.5756,3.2783 5.5756,7.2851 0,4.0068 -2.6019,7.2851 -5.5756,7.2851 -2.9736,0 -5.5756,-3.2783 -5.5756,-7.2851 z"
         id="path37" />
      <path
         d="m 744.71,2763.6 c -3.717,-9.4707 0.37165,-50.632 5.2039,-52.453 3.3453,-1.0928 4.4604,6.1923 4.4604,28.048 0,17.848 -1.4869,29.505 -3.7172,29.505 -2.2302,0 -4.8322,-2.1854 -5.9472,-5.0995 z"
         id="path38" />
      <path
         d="m 720.92,2746.5 c 0,-8.7422 -2.2302,-11.656 -11.151,-14.57 -9.6644,-3.6426 -11.151,-5.8281 -11.151,-18.213 0,-13.113 0.74339,-14.206 12.638,-16.392 7.0625,-1.0928 14.497,-1.0928 16.727,0.3642 2.2302,1.0928 4.0887,14.57 4.0887,31.326 0,23.312 -1.1151,28.776 -5.5756,28.776 -3.7171,0 -5.5756,-3.6426 -5.5756,-11.292 z"
         id="path39" />
      <path
         d="m 674.83,2718.1 c -1.4868,-2.5498 -1.8585,-5.4638 -0.7434,-6.5566 3.3453,-3.2782 7.0624,1.457 5.2039,6.5566 -1.4869,4.0068 -2.2303,4.0068 -4.4605,0 z"
         id="path40" />
      <path
         d="m 747.69,2677.6 c 0,-6.9208 0.7434,-9.8348 1.8585,-6.1924 0.74339,3.2784 0.74339,9.1065 0,12.749 -1.1151,3.2783 -1.8585,0.3642 -1.8585,-6.5566 z"
         id="path41" />
      <path
         d="m 711.26,2679.8 c -1.115,-2.914 -1.4868,-11.292 -0.74339,-18.941 1.1151,-12.385 2.2303,-14.206 10.408,-14.206 8.5492,0 9.2926,1.4571 10.408,19.306 1.1151,18.213 0.74339,18.941 -8.5492,18.941 -5.2039,0 -10.408,-2.1856 -11.523,-5.0996 z"
         id="path42" />
      <path
         d="m 709.77,2613.9 c 0,-14.934 0.74339,-16.391 9.2926,-16.391 8.54921,0 9.2926,1.457 9.2926,16.391 0,14.934 -0.74339,16.392 -9.2926,16.392 -8.54921,0 -9.2926,-1.457 -9.2926,-16.392 z"
         id="path43" />
    </g>
  </g>
</svg>
